# xmcd
#
# Track frame offsets: 
#        150
#        27871
#        43213
#        53478
#        68317
#        104240
#        146045
#
# Disc length: 2922 seconds
#
# Revision: 2
# Processed by: cddbd v1.5.2PL0 Copyright (c) Steve Scherf et al.
# Submitted via: ExactAudioCopy v1.0b6
#
DISCID=5e0b6807
DTITLE=Gallagher, Rory - Irish Tour '74 CD2
DYEAR=2014
DGENRE=Blues
TTITLE0=As The Crow Flies
TTITLE1=Pistol Slapper Blues
TTITLE2=Unmilitary Two-Step
TTITLE3=Bankers Blues
TTITLE4=Going To My Home Town
TTITLE5=Who's That Coming
TTITLE6=In Your Town
EXTD=
EXTT0=
EXTT1=
EXTT2=
EXTT3=
EXTT4=
EXTT5=
EXTT6=
PLAYORDER=
